<svg xmlns="http://www.w3.org/2000/svg" viewBox="0 0 25.566 36.404"><g transform="translate(-1171 -969)"><path fill="none" stroke="#fff" stroke-linecap="round" stroke-linejoin="round" stroke-miterlimit="10" stroke-width="2px" d="M26.094,22.473C23.318,9.567,12.066,3.1,12.066,3.1c0,5.463-4.1,11.99-6.143,14.884a11.793,11.793,0,1,0,20.17,4.489Z" transform="translate(1169 966.9)"/><path fill="none" stroke="#fff" stroke-linecap="round" stroke-linejoin="round" stroke-miterlimit="10" stroke-width="2px" d="M26.934,48.866c-1.624.8-3.691-1.654-3.691-1.654A6.262,6.262,0,0,0,21.5,51.583a6.349,6.349,0,0,0,12.7,0c0-.915,0-6.349-6.349-11.783C27.82,39.83,30.537,47.065,26.934,48.866Z" transform="translate(1155.963 941.038)"/></g></svg>