<svg id="c745e8c9-5cce-4f0b-8a9d-8f56b8b650db" data-name="Layer 1" xmlns="http://www.w3.org/2000/svg" viewBox="0 0 900 450"><path d="M200.35,60.2c6.33-6.72-22.56,26.51-36.8,57l.4-.4c-.4,1.19-9.1,24.53-10.69,24.53,0,.4.4.4.4.8-8.31,15.82-8.71,19.38-8.71,20.18,0,0,0-.4-.79-.4,0,6.73-7.12,22.55-8.7,22.55v-.79c0,.4.39.4.39.79-3.56,7.13-4.35,8.71-4.35,9.1s.4.4.4.79a37.36,37.36,0,0,1-4.75,11.88c0,3.16-4.75,3.95-4.75,13.84-6.73,12.67-7.12,18.21-7.91,19-3.57,11.07-5.54,19.78-9.9,31.65,0,6.73-9.89,38-14.64,60.93.4,2.77,3.17,3.56,3.57,7.13,23.74-4.75,48.27-9.1,74-13.06a62.63,62.63,0,0,1,9.1-1.19c1.18,0,2,.4,3.16.4,12.66,0,31.66-4.36,52.23-4.36,19.78,0,42.34,2.77,42.73,7.52,0,.4,1.59-.39,1.59.79,11.08,3.57,15.43,13.06,15.43,12.27,0,2,5.54,11.08,5.93,12.27,0,.39-.39,1.18-.39,1.58,0,1.18.79,2,.79,3.16,0,.4-.79,1.59-.79,2s.39.79.39,1.19c-.39,0-2.37,2.77-3.16,2.77-.4,0-.79-.4-1.19-.4-.79,0-.79.4-.79,1.19-4.35-.39-7.52-9.1-9.1-13.45-10.68-5.15-21.76-5.54-33.24-5.54-18.59,0-35.61,2.37-55.79,4.75-2.37,0-6.33,1.58-9.1,1.58-.39,0-1.19-.4-1.58-.4-6.33,2.38-15.43,3.56-21,3.56-19,2.77-38,9.9-49.86,9.9-1.18,0-21,7.12-23.74,7.12-5.93,3.16-11.87,4.35-13,5.14-2.77,1.19-9.5,3.56-14.25,3.56-10.68,0-17-19.38-17-19.38,0-2-.79-2.38-.79-4.75s3.56-2.38,6.33-5.15c.39,0,.79.4,1.18.4,2.77,0,8.71-4,9.11-4l-.4.4a.39.39,0,0,1-.4-.4.39.39,0,0,0,.4.4c0-.4,5.54-2,9.89-3.56-.79-4.36-6.72.39-8.31-12.27,0-.39-.79-.79-.79-1.19s.79,0,.79-.79c0,0-.79-.39-.79-.79s.79-.79.79-.79c0-.4-.79-.79-.79-1.19s.79,0,.79-.79c0-1.58-.79-2-.79-2.77.79-2.77-.39-9.89,2.38-12.66,0-.79-.4-1.58-.4-2.37,0-9.9,8.31-43.13,10.29-55,0-.4.79-.4.79-.79,1.58-12.27-.79-10.29,4-16.62-.39-.4-.39-.4-.39-.79,0,0,1.58-5.94,3.17-10.69,0-.39-.4-.39-.4-.79,0-2,1.19-13.45,13.06-41.54,0-.4.79,0,.79-.79a.39.39,0,0,1-.4-.4c0-3.17,5.94-19,7.12-19v.39c10.29-21.36,9.5-20.57,9.5-22.55,0-2.38,9.1-17.81,9.1-19.78,1.58-3.17,5.94-11.87,7.12-14.25a1.4,1.4,0,0,0-.39-.79c0-1.19,1.58-.79,1.58-2.77,4.75-4.75,2.37-8.31,5.14-8.31,5.15-9.5,5.94-11.08,5.94-11.47a.39.39,0,0,1-.4.39v-.39A63.52,63.52,0,0,0,142.18,78c1.19-1.19,4-12.27,13.46-21.76,0-.4-.4-.79-.4-1.19,0-.79,1.58-.4,1.58-1.19,4.75-4.75,3.56-12.66,12.67-12.66,2.77,0,7.51,2.37,9.49,2.37C182.94,46.75,200.35,49.52,200.35,60.2ZM69,354.19a12.79,12.79,0,0,0-6.72,2.37c-.4,0-.79-.4-1.19-.4,0,2.38-4.35.4-4.35,2,.39,0,.79.4,1.58.4a7.83,7.83,0,0,0,5.15-2.38C65.42,355.37,67.4,355.77,69,354.19Zm7.13-65.68v.39c0-14.64,13-52.23,13-51.83v-.79c13.85-38.38,12.27-40.36,14.25-40.36l-.4.79c-.39,0-.39-.4-.39-1.58.79-1.59.79-3.17,1.58-4,0-.4-.4-.79-.4-1.19,0-3.16,4-11.08,4.36-11.08,9.1-26.9,21.76-52.22,33.23-75.57,5.15-7.91,6.33-11.08,6.33-11.87s-.39-.79-.39-1.19.39-.79,2.77-3.16c5.93-9.89,7.12-13.06,7.12-13.85a1.35,1.35,0,0,0-.79.4c.39,0,3.16-4,3.16-5.15,0-.79-.39-2.37-.79-2.37,0,0-5.54,13.45-7.52,13V78.8c-.79,1.19-1.58,2-1.58,2.37s.4.79.4,1.19c-9.5,9.5-8.31,12.27-8.31,13.06a1.4,1.4,0,0,0,.39.79c-10.68,10.68-31.26,71.62-40.35,89.82-15,43.12-29.29,91.4-32.85,142,0,.4,0,1.19.8,1.19,0-.79.39-.79.39-2C72.15,309.87,75.31,288.51,76.11,288.51ZM69,332.82c0,1.19,0,2.37.8,2.37-.4.4.39-4.35-.8-5.14Z" style="fill:#fff"/><path d="M287.79,207c0,1.18-2,3.95-2.38,5.14a.77.77,0,0,1,.79.79c0,.4-.79,0-.79.79,0,.4.79.79.79,1.19-4.35,10.68-.79,15-9.1,30.86,0,.4.4,1.58.4,2,0,1.19-.79,1.19-.79,1.19,0,.39.39.39.39,1.18-1.58,7.13-10.68,24.93-9.49,30.47-5.94,15.83,1.58-2.37-7.52,17.41a163.59,163.59,0,0,0-9.1,24.14l-.4-.4c0,2.38-4.35,10.29-4.35,12.27,0,2.77-2.37,3.16-.79,3.56-2.77,4.35-7.52,21-12.27,25.72a1.74,1.74,0,0,0,.4,1.19h-.79c-.79,0-9.5,19.38-9.5,21-.79,0-1.58,0-1.58.39s.39.79.39,1.19a4.52,4.52,0,0,1-1.18,2.37l-3.17,4c-.39.39-.79.79-.79,1.18a1.24,1.24,0,0,0,.4.8c-.4,0-1.59.39-1.59.79l.4.39c-2,0-3.56,2.38-3.56,4-.4,0-2.38,1.19-2.38,1.58l.4.4c-2.38,3.56-15.43,11.47-21.76,11.47-2.38,0-2-1.18-3.56-2-.4.8-3.56,1.59-7.52,1.59-12.66,0-7.52-7.12-10.68-9.1,0-.4-.4-.4-.4-.79,0-3.56,14.64-9.11,19.78-17.41,0,0,5.15-8.31,4.75-8.71l1.19-.39c0-2.38,4.75-10.69,4.35-10.29,7.52-10.29,15-34.42,21-49.86,10.68-21.76,5.54-18.59,18.6-51.43,4.35-14.64,11.47-30.07,16.62-45.11-.79.4-1.19,1.19-2,2a85.07,85.07,0,0,0,2.77-9.5c-7.92,9.5-22.56,29.28-22.56,33.24-.39.39-1.58.39-1.58.79s.4.39.4.79c-.79,1.19-1.59.4-1.59,1.58a1.39,1.39,0,0,1,.4.79c-3.56,3.57-7.52,8.71-11.87,13.06,0,.4.4.4.4.79-1.19,1.59-2.77,2.38-3.57,3.56-3.95,5.15-18.2,24.93-26.9,24.93-2,0-3.17.4-5.94-2-.79,0-3.95.8-15-13.45,0-1.58-.79-.39-.79-1.58a1.36,1.36,0,0,1,.39-.79c-1.18,0-3.16-8.31-3.16-10.69,0,0,.79-.39.79-.79,0,0-.79,0-.79-.39,0,0,.79-.4.79-.79,0,0-.79,0-.79-.4,0-.79,0-2,.79-2a.39.39,0,0,0-.4-.39h-.39a.78.78,0,0,1,.79-.8c0-.79-.79-.39-.79-.79,0,0,.39-2,.79-3.16a17.27,17.27,0,0,1-.4-2s2-7.12,2-9.5h-.39c0-5.54-.4-1.18,3.16-13.05,13.85-30.87-2-1.19,18.2-41.95,0,.4,0,.8.4.8,1.58,0,11.87-25.72,20.57-25.72h2.77c-.39,0,15,1.58,15,7.52,0,1.58,2.77,3.16,3.56,3.56,0,.39-.4,1.18-.4,1.58h.79a3,3,0,0,1,.8,1.58c0,4-7.92,8.31-11.08,13.85a1.36,1.36,0,0,0,.39.79c-.79,0-1.18,0-1.18.4a1.72,1.72,0,0,1,.39,1.18c0,.79-.79,2.38-3.56,4.75,0,.79.4,1.19.4,1.59-2.77,0-13.06,29.67-15.83,35.21,0,2.77-7.52,15-7.52,24.53C207.86,245,203.9,241,240.3,204.23l-.79.79c0-.4,2.38-4.75,7.12-9.89,0,0,13.06-22.56,13.06-26.51h.79c5.15,0,4.75,1.58,14.25,7.51.39,0,.39-.39.79-.39,2.77,0,7.91,6.33,8.31,7.12,1.58,1.58,2.77-1.58,3.56,21a.39.39,0,0,0-.4.4c0,.39.8.79.8,1.18s-.8,0-.8.8ZM196,190c0-.39,0-.79-.4-.79.8-1.19,2-5.93,5.15-5.93a1.35,1.35,0,0,0-.4-.79c0-1.19.79-.8,1.58-1.59,0-.39-.39-.39-.39-.79,0-.79.79-.39,1.58-1.19a1.36,1.36,0,0,1-.39-.79c0,.4,4.74-2.77,4.74-6.72,0-.79-.39-2-.79-2,0,1.19-3.95,4-3.95,5.14a.84.84,0,0,0,.79.79c0,.4-5.15,1.59-5.15,5.94,0,0-14.64,26.9-16.61,32.44v-.39s-9.11,13.85-9.11,29.67a2.91,2.91,0,0,0,.4-2c4.35-13.46,9.1-26.12,15-37.59,0-.4.79-.79.79-1.19C189.26,202.25,192,190,196,190Zm56.58,6.73a.39.39,0,0,0-.39-.4c-9.9,13.06-26.52,30.47-27.7,32.45-8.31,10.68-13.85,17.41-21,24.53.39,0,.79,0,.79.4.39,0-15,10.68-15,16.61,5.15,0,16.23-19.78,38.78-42.33a1.21,1.21,0,0,0-.4.79,252.55,252.55,0,0,0,23.74-28.88A10.36,10.36,0,0,0,252.57,196.71Zm13.06,6.73a21.69,21.69,0,0,0-.79-5.94c-2.38,11.08-7.13,25.32-8.71,34,0,7.91-7.52,26.51-7.52,27.3,0,8.31-9.1,10.68-9.1,24.53-.79,4-9.89,25.72-15,36.8-3.17,7.12-30.07,66.08-32.45,70,5.94-7.12,7.92-10.28,12.66-19.78v.4c.8,0,6.73-17,10.29-22.16,0-.4-.39-.79-.39-1.58,0,8.3,31.65-70.83,38.77-94.17a16.77,16.77,0,0,0-.39-2,.78.78,0,0,1,.79-.8C259.69,236.67,264,215.7,265.63,203.44Z" style="fill:#fff"/><path d="M437.34,200.67c-5.14,13.05-22.55,33.23-21.36,34.82-13.06,15.82-3.57,11.47-13.06,21,0,6.72-5.15,7.12-5.15,7.12s.4,0,.4.79-1.58-.4-1.58,2.37a1.36,1.36,0,0,0,.39.79c-7.12,7.13-7.51,16.62-9.89,16.62-.39,0-.39,0-.79-.39a1.39,1.39,0,0,0,.4.79.39.39,0,0,1-.4.39l-.4-.39c0,8.7-6.72,11.47-6.72,13.85-5.94,5.93-5.94,8.7-5.94,9.49a1.35,1.35,0,0,0,.4-.79c0,3.17-6.73,11.87-6.73,13.85-10.68,21-13.05,24.53-13.85,24.53v-.79c-2,0-6.33,15.83-17.41,15.83-12.26,0-14.64-4-14.64-4.75l.4.39c0-3.16-7.91,2.77-16.22-13.45-1.59,0-3.56-6.72-3.56-15.82,0-1.19,0-2.38.79-2.38,0-.79-.79-.39-.79-.79a.77.77,0,0,1,.79-.79c-.4-.79-.4-.79-.4-1.19a5.28,5.28,0,0,1,.4-2c0-1.18-.4-2-.4-2.77s0-2,1.19-2c0-.8-1.19-.8-1.19-2,0-7.52,22.55-79.53,24.14-79.53,3.16-2.38,6.72-13.85,11.87-26.12-11.87-2.37-19,2-32.84-11.87-10.29-5.14-11.08-10.28-11.08-15.43,0-2,.79-4.75.79-5.54l-.79-.39c0-10.69,4.75-11.48,4.75-13.46,0-8.31,7.91-15,8.31-15,0-.79-.4-.79-.4-1.19,0-1.58,5.14-2.77,5.14-7.52,7.52-17,43.53,1.19,36.8,4.75-.39,0-5.14,7.12-5.14,7.52-.79.79-4,3.16-4,6.33l-.39-.4c0,2-.8,1.59-.8,2a1.35,1.35,0,0,0,.4.79c-4.35,0-5.14,16.62-8.31,16.62-2.37,1.58-1.19,5.54-4.35,12.27.79.79,2.77.79,5.14.79,8.71,0,8.71-1.58,17.81-1.58s21.76,6.33,21.76,6.33c2.77,2.77,4.75,5.14,4.75,9.89,0,7.52-3.56,15.43-3.56,15,0,.4-2,4.75-5.15,13.85-4.75,4.75-6.33,16.22-6.33,15.83,0,1.19-5.54,12.27-5.54,12.27,0,.79-1.18,3.16-2,4.74-9.1,24.14-15.43,45.11-19,68.46.4,0,.4,0,.4-.4,0-2.77,5.54-5.54,5.54-9.1,14.64-26.91,9.49-10.68,17-28.49,9.5-9.5,7.91-12.27,9.89-15,7.12-13.84,8.71-16.22,8.71-16.22V264s0-1.18,3.56-4.74a1.4,1.4,0,0,1-.4-.8c0-.39,2.38-4.35,5.94-7.91,0-.4-.4-.79-.4-1.19,0-2.77,4.36-5.14,4.36-5.54h-.8c19.79-28.48,5.54-9.89,19.39-26.9a1.36,1.36,0,0,0-.39-.79c0-1.59,14.24-19.79,17.41-19.79,1.18,0,.39.79,1.18.79a25.62,25.62,0,0,1,3.56-.79C433.38,196.31,435.36,198.29,437.34,200.67Zm-125-42.74a.39.39,0,0,0-.4-.39h.8c19-32-.4-10.68-2.78-2.38-1.18,0-1.58,4-1.58,4v-.79c0,.39.4.79.4,1.19-1.19,0-1.19,0-1.19.39a1.35,1.35,0,0,0,.4.79c-.79,0-3.17,13.85-5.15,13.85v-.79c0,.79.4,1.58.4,2.77,0,.4-.79,1.58-.79,2s0,.79.79.79c1.19-4,2.37-7.91,4-11.87C307.17,164.27,312.31,159.12,312.31,157.93ZM324.18,271.1c5.14-9.9,4-14.64,7.12-17.81,0-.39-.39-.79-.39-1.19,0-3.56,5.93-11.87,5.14-11.07,0-.4-.4-.8-.4-1.19,0,.79,6.33-13.46,6.33-14.25v-1.18c6.34-6.33,7.52-18.2,7.52-17.41,0-.4,0-.4-1.58-.4-4.35,0-4,13.06-6.73,13.06v-.4c0,.4.4.79.4,1.19-1.58,1.58-3.17,4.75-3.17,5.54,0,.39.4.79.4,1.19-15.43,15.43-22.16,68.84-27.7,82.69,0,3.17-.79,2.38-.79,3.17,0,.39.4.79.4,1.18-1.19,5.54-.8,9.1-.8,14.25,0,3.16,0,5.54.8,5.54a240.69,240.69,0,0,1,3.95-28.1C323.39,279.4,322.6,271.1,324.18,271.1Zm22.55,53.41,1.59-1.58c0-.4-.4-.4-.4-.79,0-.79,1.58-.79,1.58-1.19,13.06-26.51,15.83-28.49,17.41-30.07,0-.4-.39-.79-.39-1.19s1.18-.39,1.58-.79c4.75-9.5,6.33-11.08,6.73-11.08,0,.4,0,.4-.4.4,14.25-25.72,9.5-16.22,23.74-39.57,0-2,.79-1.19,1.58-2a1.36,1.36,0,0,1-.39-.79c0-.79,2-1.58,2-2l-.4-.39c11.47-11.48,4.35-7.13,9.1-11.87a1.4,1.4,0,0,1-.39-.79c0-1.19,2.76-2.77,2.76-3.57l-.39-.39c-14.64,21-17.81,25.72-17.81,26.11l2-2.77c-3.16,7.92-9.49,13.46-9.49,14.25-5.15,10.68-18.6,32.84-18.6,31.65,0,.79-.4.4-.79.79-13.06,19.39-7.52,24.54-14.25,24.54-11.08,11.07-3.95,15-9.1,15,0,2.77-5.14,7.52-5.14,8.31,0,.39,0,.39.4.39-2,0-4,5.94-4.36,5.94v-.4a1.4,1.4,0,0,1,.4.8,6,6,0,0,1-1.19.79c0,.39,0,.39.4.39.79-1.18,2-2,2.77-3.16C344,326.09,343.57,333.61,346.73,324.51ZM418,209.37c-.79,0-3.95,4.35-4.35,4.35,0,.4.4.79.4,1.19a5.58,5.58,0,0,1-1.19.79c0,.4,0,.4.4.4,1.18-2,3.16-3.56,4.35-5.94C418,210.16,418,210.16,418,209.37Zm1.19-3.16c0,.39.4.79.4,1.18a5.58,5.58,0,0,1-1.19.79c0,.4,0,.4.39.4.8-1.58,2.78-2.77,2.78-4C420.72,205,419.14,205.81,419.14,206.21Z" style="fill:#fff"/><path d="M507.77,199.48c0,1.58-1.58,6.73-6.73,11.08a.39.39,0,0,0,.4-.4c-.79,0-3.17,2.38-18.2,28.89-1.59,2.77-2,3.95-2,4.74,0,3.17-2-.79-9.1,11.88-1.19,1.18,2,2.76-8.31,13.05,0,.4-6.33,6.73-6.33,10.68a1.41,1.41,0,0,0,.39.8c-.39.39-5.14,5.93-5.14,6.72a1.35,1.35,0,0,0,.4.79s-7.92,5.94-7.92,9.9c0,.39.4.79.4,1.18-2.38,0-1.19,1.59-2.38,2.77a1.4,1.4,0,0,1-.79-.39c-.39,0,1.19,3.95-7.91,9.89-1.58,0,1.19,4.75-9.1,4.75-3.56,0-24.14-8.71-24.14-13.85,0-.4.4-.79.4-1.19v.4c-.79,0-2.38-2-2.38-3.56a1.4,1.4,0,0,1,.4-.8c-2,0-4.35-10.68-4.35-17.8a15.28,15.28,0,0,1,.39-3.17c0-.39-.39-.79-.39-1.58,2-15.43,2.77-34.42,17.41-62.52v.4c-.4,0-.4,0-.4-.4,0-2,7.12-13.45,12.66-24.53,0-.39,5.15-3.16,5.15-9.1,3.95-4-1.59,1.19,8.31-13.45a1.23,1.23,0,0,0-.4.79v-.39c0-.79,4-10.69,9.5-10.69,3.16,0,28.88,8.31,22.55,17-7.12,9.89-9.89,18.59-13.85,20.57,0,.4-5.54,12.27-5.54,12.27-1.19,7.12-5.54,8.7-7.52,14.24,0,6.73-11.08,25.32-11.08,30.07a1.35,1.35,0,0,0,.4.79,8.91,8.91,0,0,0-2.77,6.34c0,10.68-6.33,21.36-6.33,34,2.77-.79,6.33-9.49,13.06-16.22,7.12-7.12-2.77-2.77,13.05-18.6a1.36,1.36,0,0,1-.39-.79.38.38,0,0,1,.39-.39c10.29-10.29-1.18-3.17,16.23-21.77l-.4.4c0-.4,1.58-2.37,10.29-13.85,0,0,14.24-18.59,14.24-18.2v.79c.79,0,3.17-6.73,7.12-6.73,1.59,0,2.38.8,3.17.8.4,0,.4-.4.79-.4C502.23,195.92,507.77,195.92,507.77,199.48Zm-95.36,38.78c12.27-29.68,13.85-35.61,19.39-45.11a.38.38,0,0,0,.39.39l.4-.39a1.39,1.39,0,0,1-.4-.79l.4-.4v.4c-.4,0-.79,0-.79-.4,0-2.77,17.41-19,17.41-30.47a4,4,0,0,0-.4-1.18c-1.18,0-14.24,24.13-14.24,24.13.39-.39-4.75,2.38-4.75,8.31-1.19,2-5.54,13.46-7.12,13.46-4,11.87-5.14,13-12.66,32.84-3.17,7.91-7.12,27.3-7.12,36.79,0,1.19,0,2.38.79,3.17,0-7.52,2-16.22,3.56-21.37.39-1.58.79-15,5.54-18.59A1.39,1.39,0,0,1,412.41,238.26Zm77.16-30.87a.39.39,0,0,0-.4-.39c-10.68,14.64-21.76,29.28-32.05,44.71,0,0-3.95,4-3.95,5.93a1.4,1.4,0,0,1,.39-.79c0,.4-3.16,6.33-4.75,6.33,0,8.71-4.75,4.75-11.87,17.41,0,.4.4.79.4,1.19-.79.79-2.38.79-2.38,1.58,0,.4.4.79.4,1.19-.79.79-2.37.39-2.37,2.37,0,.79-8.31,9.89-8.31,10.69,0,.39,0,.39.39.39,23.74-26.11,41.94-60.93,64.1-89.42C489.17,208.18,489.57,207.79,489.57,207.39Zm-28.1-95.75c0-6.33,4-17,5.54-17.8,0-.4,1.19-.4,1.19-1.19a128.57,128.57,0,0,1,9.89-23.35c0-.39,3.56-5.14,3.56-5.54l.4-.39s5.54-8.31,10.68-8.71c5.15,0,6.33.8,7.52,1.59v-.4c.4,0,1.58.79,2.37.79.4,0,.4,0,.8-.39.39,2.77,23.34,5.54,19,13-5.54,7.92-13.85,10.29-21.76,23-.4.4-9.5,11.87-9.5,11.87-7.91,7.52-12.66,22.95-10.68,23.35-2,0-11.08-3.56-11.48-9.1C464.64,117.18,462.27,115.6,461.47,111.64Zm27.7-38.78c.4-.79,4-1.58,3.56-9.49-2-.4-2.37.39-2.37.39,0,.4-16.22,26.51-16.62,32.84v.8C475.32,109.66,471.37,95.42,489.17,72.86Z" style="fill:#fff"/><path d="M618.55,215.31c-.39,0-7.91,6.72-7.91,9.49,0,.4.39.79.39,1.19-4.35,2.77-12.66,13.85-12.66,13.06v1.18c-9.1,9.5-11.87,13.85-31.65,33.64h-1.19c-8.7,12.26-25.72,24.13-25.32,24.13-.4,0-7.12,4.35-11.87,7.91-4.75,0,2,3.57-16.22,3.57-11.08,0-21-11.08-36-26.51,0,0-4-4.75-4-5.94-.39,0-5.14-7.12-5.14-18.2a.77.77,0,0,0,.79-.79c-.79,0-.79-.4-.79-.79a11.36,11.36,0,0,1,.79-3.56.85.85,0,0,1-.79-.79s.79,0,.79-.4c0,0-.79-.4-.79-.79v.39s3.16-3.56,3.16-11.47c0,0-.79-.4-.79-.79,0-1.58,5.54-7.52,5.54-13.46,3.17-8.3-3.16,2.38,9.5-19.38,0,0,15.83-26.91,36-40.76l-.39.4c0-1.58,5.54-7.52,12.66-7.52,0-.4-.39-.79-.39-1.19v.4c.39,0,3.16-4.75,17.8-4.75a48.49,48.49,0,0,1,10.29,1.19h-.79c0,.79,11.47,3.95,16.61,8.7,3.57,0,16.62,11.08,16.62,20.18,0,0-.79,5.54-5.14,5.54-2.37,0-4.35-3.56-5.54-5.93l.4.39s-5.15-4-10.69-4c-2,0-5.93,1.58-7.12,1.58a1.35,1.35,0,0,1-.79-.4c0,1.19-1.58,1.19-3.17,1.59-.79,0,0,1.18-.79,1.18-.39,0-.79-.39-1.19-.39a.39.39,0,0,0,.4-.4s-8.31,4.75-8.31,6.33c0,1.19-13.06,2.38-33.24,38.78,0,0-3.95,3.16-3.95,7.52l.39.39c-2.37,2.38-2.37,3.17-3.56,7.12,0-.39,0-.79-.39-.79-1.19,0-8.71,18.2-8.71,32.84a37.22,37.22,0,0,0,2,11.87c8.71,0,21-13.05,26.12-13.05,4.35-5.94,14.63-12.27,15.82-13.06.4-.4,7.52-8.31,14.25-12.66,9.1-9.5,11.47-11.48,11.87-11.48s.39.79.39.79c.79,0,4.35-3.16,24.53-23.34,1.19-1.19,13.46-15.43,19-18.2a1.36,1.36,0,0,0,.79.39c.79,0,3.16-4.74,7.12-4.74,1.58,0,7.52,5.14,9.1,5.93C632.4,205.81,632,197.5,618.55,215.31ZM522.4,179.7c11.87-9.5,2-5.15,13.06-10.69,0,0,8.31-5.14,8.31-6.33-2,0-5.54,3.17-7.52,3.17-2.37,2-5.54,2.37-5.54,2.77v.79c-.39,0-.79-.4-1.18-.4-1.59,1.59-4,2.77-6.34,5.54-10.68,7.12-10.68,10.29-17.8,17.41-7.52,11.08-27.3,36.8-27.3,57.77v.39c2.77-9.89,5.14-14.63,5.14-15.82.79-.79,1.19-6.33,5.94-11.08,1.18-2.77,5.93-6.33,5.93-11.48v.4c.4,0,3.17-6.73,5.15-8.31C507,197.1,499.45,202.65,522.4,179.7Zm95.76,18.59a18.09,18.09,0,0,0-2.77,2.77c-14.25,13.45-26.91,25.72-48.67,47.48-11.48,11.08-22.56,19.39-34,30.86,9.5-6.33,24.53-18.2,82.7-76.36A34.72,34.72,0,0,0,618.16,198.29Z" style="fill:#fff"/><path d="M752.68,205.81l.39.4c-7.91,3.95-3.56,6.72-8.7,11.87-2.77,8.7-1.59,1.58-7.92,14.24,0,0-6.72,4-6.72,10.68,0,7.92-2.38-3.16-8.31,14.64-4,4-4.75,5.54-4.75,6.73s.4,1.58.4,2.77v-.4c-1.19,0-8.71,19-12.27,19,0,3.16-13.06,21.36-21,21.36-3.56,0-8.7-5.93-13.85-11.08,0,0-9.89-9.1-9.89-11.47a1.35,1.35,0,0,1,.4-.79.38.38,0,0,1,.39.39s-4-.39-4-7.51l-.39.39s-1.19-4.75-2-9.1c0-8.31,0-14.64,2-21.37-.4,0-6.73,4-14.24,14.64h-.4a.39.39,0,0,1,.4.4c0,1.19-6.34,6.73-7.92,8.31,0,.39,0,1.58-.4,1.58a1.36,1.36,0,0,0-.79-.39v.79c-.79,0-4.35,10.28-15,10.28-7.52,0-10.68-5.93-19.39-16.22,0,.4-3.17-3.16-2.77-3.16,0-2.77-5.54,4.74-5.54-17.41,0-4.75,2.77-7.92,2.77-11.87a.39.39,0,0,1-.39-.4c0-3.16,5.53-7.52,5.53-12.66,0-.4.4-2.37,1.19-2.37a1.41,1.41,0,0,1-.39-.8l.39-.39a.39.39,0,0,0,.4.39c.79,0,4.35-8.7,5.93-10.28,0-.4-.39-.4-.39-.79,0,0,1.58-3.56,9.1-11.08,6.33-6.33,18.2-14.64,18.2-15.43a1.36,1.36,0,0,0,.79.39c.79,0-.4-.79,1.58-.79a.39.39,0,0,1-.39-.4c1.58,0,1.18,0,1.18-.79a1.35,1.35,0,0,1,.79.4c.4,0,1.59-1.58,1.59-1.58a1.4,1.4,0,0,1,.79.39c.39,0,9.5-2.77,15.43-2.77a45.66,45.66,0,0,1,15,2.38v-.4c.39,0,4.35,3.56,7.91,3.56a1.36,1.36,0,0,0,.79-.39c0,.79,1.19,1.58,1.58,1.58a1.4,1.4,0,0,0,.8-.4c.79.79,3.16,1.59,4.35,2.77,2.37,0,4.74-6.72,8.31-6.72,1.18,0,15,4.74,17.41,8.31,2.37,1.58,7.51,2.76,7.51,6.72,0,3.17-8.31,12.27-8.31,15,.4-.4-7.51,10.68-7.51,15.43a1.4,1.4,0,0,0,.39.79c-1.18,0-2,2-3.56,7.52v-.4c0,1.19-10.29,27.3-10.29,27.3v.79l-.39,4a.39.39,0,0,1-.4-.39c-1.58,4.74-1.58,9.49-3.16,13.84a.39.39,0,0,0,.39.4c0-.4,2.38-2.37,2.77-2.77a1.36,1.36,0,0,0-.39-.79c0-.4,1.58-1.19,2-1.58a1.41,1.41,0,0,1-.39-.8c0-.39,3.16-2.37,2.77-2.37,0-.4-.79-.4-.79-.79,0-.79,1.18-2.77,6.33-7.91a1.4,1.4,0,0,1-.4-.8l.4-.39h-.4c0-.79,6.33-3.56,6.33-8.31,0-2,1.19-1.58,2-2.38l-.39-.39c0-4.75.39-3.56,9.89-13.06a1.35,1.35,0,0,1-.4-.79l.4-.39a.38.38,0,0,0,.39.39c2.77-7.12,5.94-3.56,25.33-30.86,1.18,0,1.58-5.54,9.1-5.54,1.19,0,4,2.37,4,3.17,0,1.18-.79,2.77-.79,5.53A.39.39,0,0,0,752.68,205.81Zm-108-22.55c-4.35,0-6.73,2.37-14.25,7.91-2,2-2.77,2.37-3.16,2.37s-.4-.39-.79-.39c-.79,0-2.38,2-13.46,19-.39,0-.79,0-.79.4l.4.39a21.25,21.25,0,0,0-2.77,3.56,1.35,1.35,0,0,0,.4.79.39.39,0,0,1-.4-.39l-.4.39a1.4,1.4,0,0,0,.4.8h-.79c0,2.37-.79.79-.79,1.58a1.36,1.36,0,0,1,.39.79.39.39,0,0,1-.39-.4c-.79,0-.4,1.59-1.19,2a1.39,1.39,0,0,1,.4.79c-.4,0-.8.8-.8,1.19,0,2.77-6.72,5.14-6.72,19-.4,0,6.33-7.91,6.33-14.64v.4c-.4,0-.4,0-.4-.4,0-3.56,15.43-21.76,15.43-23.34v-.79C629.62,195.92,637.54,190.38,644.66,183.26ZM668,213.72c0-.39,0-.39-.39-.79-8.31,9.89-18.2,21-26.51,27.7,0,0-17.81,14.24-17.81,17a.39.39,0,0,0,.4.4c3.95-3.17,7.91-7.52,11.47-9.89,10.69-10.69-2,2.37,21.37-21a1.4,1.4,0,0,1-.4-.8c0-3.16,11.08-7.91,11.08-11.47C667.21,214.51,668,214.12,668,213.72Zm8.31-16.22c-12.26,0-11.87,5.54-17.8,5.54.79,0-12.27,9.89-13.46,11.87h.8c0,.4-4.36,2-4.36,4.35a1.39,1.39,0,0,1,.4.79c-4.75,4.75-5.15,5.15-8.71,14.64-.79,0-6.33,6.34-6.33,11.87a.39.39,0,0,0,.4.4c.39,0,7.12-4.35,14.64-11.87a1.39,1.39,0,0,1-.4-.79c0-.4,5.15-4.35,5.54-4.75a1.36,1.36,0,0,0-.39-.79.39.39,0,0,1,.39-.4c6.33-7.91,16.62-15.82,23.35-24.13C672.75,201.85,674.73,200.27,676.31,197.5ZM672,229.55c0-.4,0-.4-.4-.79a19.35,19.35,0,0,0-3.56,8.7.39.39,0,0,0,.4.4c.79-2.77,2.77-4.75,2.77-6.33C671.17,231.13,672,230.34,672,229.55Zm74.78-27.7c-.79,0-2.77,2-3.56,2.77-10.29,7.12-4.75,5.15-13.85,15.43,0,0,.4,0,.4,1.19,0,1.58-1.58,5.14-9.1,12.66,0,1.19-3.56,4.36-3.56,5.15l.39.39-.39.4a.39.39,0,0,1-.4-.4s-6.33,7.52-6.33,9.1a1.39,1.39,0,0,1,.4.79c-1.19,0-4.36,1.19-7.92,12.27-.79.79-1.58,1.19-1.58,1.58a1.39,1.39,0,0,1,.4.79.39.39,0,0,0-.4-.39c-.4,0-1.58,3.56-4.35,6.33,0,4-11.87,15-11.87,17.41,0,.39,0,1.19.39,1.19,0,0,4,.39,12.67-16.23h-.4s2.77-7.12,5.14-7.12a1.36,1.36,0,0,0-.39-.79c-.79-.4,8.7-13.45,22.15-33.63,3.17-3.17,11.08-12.66,11.08-16.23,0,.4,4.36-5.14,11.48-12.26C747.14,201.85,747.14,201.85,746.74,201.85Z" style="fill:#fff"/><path d="M826.66,94.63c0,.39,0,.79.4.79C825.48,97,815.19,116.78,815.19,118c0,.4-7.52,16.62-7.52,17-7.91,7.92-7.91,18.21-10.29,20.58-2.37,1.19-7.52,14.24-7.52,17-4,11.48-10.28,22.56-10.28,24.93-.79,2-17,48.67-17,51.83a51.89,51.89,0,0,1-5.93,21.77c0,7.12-3.56,18.2-4.75,20.57l.4.4s-.4,4.74-.8,6.72c2.38-2.37,10.69-16.22,10.69-17.41h-.4c11.08-19.78,38-56.18,38-62.12,8.7-15.82,9.89-17.8,9.89-17.41-.4,0-.4,2-.4,2,.79,0,3.17-16.22,18.6-16.22,3.56,0,10.29,2,10.29,5.93,0,3.56-1.59,1.59-10.69,15.43-7.51,7.52-7.51,11.88-7.51,12.27,0,1.19-9.5,11.87-9.5,16.22l.4-.39c-2.77,2.77-3.57,4.35-3.57,5.14a1.35,1.35,0,0,0,.4.79c-7.12,5.94-8.7,11.48-8.7,13.06a1.36,1.36,0,0,0,.39.79,50.73,50.73,0,0,0-5.14,7.91c0,.4.39.8.39,1.19-2.37,1.19-3.56,4.35-4,5.15,0,.39.39.39.39.79-2.37,1.18-5.54,9.49-5.54,9.1,0,1.18-1.58.79-1.58,1.58,0,.4.4.79.4,1.19-1.59,0-.4,1.18-1.19,1.18h-.4c0-.39-3.56,7.13-3.56,6.73a1.35,1.35,0,0,0,.4.79c-1.19,0-1.19,0-1.19.4a1.39,1.39,0,0,0,.4.79c-4,4-10.29,18.2-15.43,28.49,0,.39.39.79.39,1.18-1.58.4-2.37,2.77-2.37,3.17a1.36,1.36,0,0,0,.39.79c-1.58,0-3.16,6.73-3.56,6.73v-.4c0,9.89-6.73,11.87-6.73,12.27.4,0,.4.39.4,1.58a.39.39,0,0,1-.4-.39l-.39.39c0,.4.39.79.39,1.19-3.16,2-3.16,3.56-9.1,3.56,0-2.37-5.53-2.77-5.53-2.77H738c-2.37,0-2.77-.79-2.77-1.19v-.39a1.36,1.36,0,0,1-.79.39c-2,0-2.37-3.56-3.16-3.56-.4,0-.8.4-1.19.4,0,0-9.5-7.13-9.5-14.25,0,0,.79-.39.79-.79-1.58-1.19-.39-2.77-2.37-5.54,0-.39.79-.39.79-1.19,0-3.95-1.19-9.49-1.19-15,0-7.52,1.19-15.43,1.19-22.16,0,0-.79,0-.79-.39.79,0,1.58-5.54,1.58-5.54a.86.86,0,0,1-.79-.8c0-.39,0-2,1.58-5.93,0-.4-.39-1.19-.39-1.58,0,0,1.19-4.36,1.58-5.54V266a36.66,36.66,0,0,1,1.19-7.12l-.4-4c2.38-6.33,3.17-14.64,4.75-21.76,1.19-6.73,7.91-16.62,7.91-26.51,0-1.58,6.33-12.27,6.33-13.45a2.39,2.39,0,0,0-.39-1.58l.39.39c7.92-16.62,8.31-21.36,8.31-21.76v.4c0-4,11.48-24.93,11.48-28.1,13.45-24.53,23.34-52.23,27.3-52.23h.39a1.4,1.4,0,0,0-.39-.79c0-1.18,1.58-1.58,1.58-1.58,19-33.63,17.41-30.47,21.76-37.19,4-6.33,5.94-14.64,12.67-14.64,3.95,0,30.46,10.68,30.46,19.39,0,1.18,0,2-.79,2.76-8.7,10.69-17.41,19.39-21.76,27.3C832.2,86.32,826.66,92.25,826.66,94.63ZM745.55,216.49,742,221.24c-6.33,18.2-6.33,20.58-6.33,21,0,5.54-2.38,8.31-2.38,9.5s.4,1.58.4,2.37c0,2.77-2,8.71-2.77,12.27-2.37,12.26-4.35,24.93-4.35,38.38a.38.38,0,0,0,.39.39c0-1.18,2-18.59,2-19.38,0-11.08,7.92-26.91,7.92-37.2Zm3.16,100.11c0,.39,0,.39.4.39,10.29-21,22.55-41.15,34.42-61.32a1.36,1.36,0,0,1-.79.39v-.39c-5.14,5.14-7.12,9.49-7.12,10.68a1.35,1.35,0,0,1,.4.79c-6.33,6.33-7.52,8.7-7.52,9.89,0,.79.79,1.19.79,2s-.79,2.37-4.35,5.93c-7.52,7.52-4.75,11.48-6.73,11.48C749.9,311.06,748.71,312.25,748.71,316.6Zm33.64-191.9a3.66,3.66,0,0,0-3.56,2c0,9.89-13.46,23.34-13.85,30.07l-11.08,30.07c1.58-2,2.77-4.75,5.14-6.73,9.89-21,5.54-14.24,8.71-22.55,6.33-6.33,5.14-14.64,8.31-17.81C777.2,137.75,781.56,126.68,782.35,124.7Zm3.95,126.61c1.59-2.37,2.77-4.75,4-6.72C788.68,246.17,787.49,248.94,786.3,251.31Zm32.45-191.5a2.38,2.38,0,0,0-.4-1.59C813.21,66.53,799,90.67,799,89.48c0,.4.39.79.39,1.19-2.37,2.37-10.68,17-10.68,18.6,0,.39,0,.39.39.39,0-.79,1.19-.79,2-.79.4,0,2.38-6.33,4-6.33v-1.19a37.5,37.5,0,0,0,9.89-16.62c0-4.74,10.68-17,10.68-17.41C817.17,63.76,818.75,63,818.75,59.81ZM794.22,238.26c2,0,3.16-5.54,5.14-6.73a1.4,1.4,0,0,1-.39-.79c0-2.77,1.18-5.15,2.77-7.52C791.84,234.3,796.2,234.3,794.22,238.26Z" style="fill:#fff"/><path d="M808.45,301.17c0-13.06,5.15-16.62,5.15-17,1.58-3.16,2.77-6.72,6.33-6.72.79,0,26.9,12.66,26.9,27.3,0,6.33-4.35,11.08-4.35,12.26-6.72,10.29-8.31,12.27-14.64,12.27-10.29,0-14.24-16.22-15-17.41-.4-.79-1.59-1.19-1.59-2a1.39,1.39,0,0,1,.4-.79c-1.58-1.58-2-2.37-2-7.12C809.25,302,808.45,302,808.45,301.17Z" style="fill:#fff"/></svg>