<svg data-name="Layer 1" xmlns="http://www.w3.org/2000/svg" viewBox="0 0 95 47.5"><path d="M19.21,5.08A45.93,45.93,0,0,0,15,11.53l.05,0a18,18,0,0,1-1.22,2.78s.05,0,.05.09a7.41,7.41,0,0,0-1,2.28s0,0-.09,0a5.56,5.56,0,0,1-1,2.55v-.09c0,.05,0,.05,0,.09a8,8,0,0,0-.49,1s0,0,0,.09a4.38,4.38,0,0,1-.53,1.34c0,.36-.54.45-.54,1.57a13.86,13.86,0,0,0-.9,2.15c-.4,1.26-.63,2.24-1.12,3.59,0,.76-1.12,4.3-1.66,6.9,0,.32.36.41.4.81,2.69-.54,5.47-1,8.39-1.48a8,8,0,0,1,1-.13c.13,0,.22,0,.36,0,1.43,0,3.59-.49,5.92-.49s4.79.31,4.84.85c0,0,.18,0,.18.09a3.55,3.55,0,0,1,1.75,1.39,11.22,11.22,0,0,0,.67,1.39s0,.13,0,.18.08.22.08.36-.08.18-.08.22,0,.09,0,.14-.27.31-.36.31-.09,0-.13,0-.09,0-.09.13c-.5-.05-.85-1-1-1.52a8.27,8.27,0,0,0-3.77-.63,52.71,52.71,0,0,0-6.32.54c-.27,0-.72.17-1,.17-.05,0-.14,0-.18,0a7.76,7.76,0,0,1-2.38.4c-2.15.32-4.3,1.12-5.65,1.12-.13,0-2.37.81-2.69.81A13.4,13.4,0,0,1,5.13,41a4.78,4.78,0,0,1-1.61.41c-1.21,0-1.93-2.2-1.93-2.2,0-.22-.09-.27-.09-.54s.4-.27.72-.58c0,0,.09,0,.13,0a3.71,3.71,0,0,0,1-.44l0,0s0,0,0,0,0,0,0,0,.63-.22,1.12-.4c-.09-.5-.76,0-.94-1.39,0,0-.09-.09-.09-.14s.09,0,.09-.09-.09,0-.09-.09.09-.09.09-.09-.09-.09-.09-.13.09,0,.09-.09-.09-.22-.09-.31c.09-.32-.05-1.12.27-1.44,0-.09-.05-.18-.05-.27,0-1.12.94-4.88,1.17-6.23,0,0,.09,0,.09-.09.18-1.39-.09-1.17.45-1.88-.05-.05-.05-.05-.05-.09s.18-.67.36-1.21c0-.05,0-.05,0-.09A15.82,15.82,0,0,1,7.1,19c0-.05.09,0,.09-.09a0,0,0,0,1,0,0A6.88,6.88,0,0,1,8,16.73v.05C9.12,14.36,9,14.45,9,14.22s1-2,1-2.24c.18-.36.68-1.34.81-1.61a.14.14,0,0,0,0-.09c0-.14.18-.09.18-.32.53-.54.26-.94.58-.94a9.45,9.45,0,0,0,.67-1.3s0,0,0,0v0s0,0,.4-.63a8.17,8.17,0,0,1,1.52-2.46s0-.09,0-.14.18,0,.18-.13c.54-.54.4-1.44,1.43-1.44.32,0,.86.27,1.08.27C17.24,3.55,19.21,3.87,19.21,5.08ZM4.32,38.39a1.45,1.45,0,0,0-.76.27s-.09,0-.13,0c0,.27-.5,0-.5.23,0,0,.09,0,.18,0a.91.91,0,0,0,.59-.27C3.92,38.52,4.15,38.57,4.32,38.39ZM5.13,31v0a28.07,28.07,0,0,1,1.48-5.87V25C8.18,20.68,8,20.45,8.23,20.45l-.05.09s0,0,0-.18.09-.35.18-.44-.05-.09-.05-.14a3.48,3.48,0,0,1,.49-1.25A71.63,71.63,0,0,1,12.53,10a4.51,4.51,0,0,0,.72-1.34c0-.09-.05-.09-.05-.14s.05-.09.32-.36a5.94,5.94,0,0,0,.8-1.56.19.19,0,0,0-.09,0A1.41,1.41,0,0,0,14.59,6c0-.09,0-.27-.09-.27s-.63,1.52-.85,1.48V7.18c-.09.14-.18.23-.18.27s0,.09,0,.14c-1.08,1.07-.95,1.39-.95,1.48s0,.09,0,.09c-1.21,1.21-3.54,8.11-4.57,10.17a62.67,62.67,0,0,0-3.73,16.1s0,.13.09.13,0-.09,0-.22A34.7,34.7,0,0,1,5.13,31Zm-.81,5c0,.13,0,.27.09.27s0-.5-.09-.59Z" style="fill:#fff"/><path d="M29.12,21.71c0,.13-.23.45-.27.58a.09.09,0,0,1,.09.09c0,.05-.09,0-.09.09s.09.09.09.14c-.49,1.21-.09,1.7-1,3.49,0,0,0,.18,0,.23s-.09.13-.09.13.05.05.05.14c-.18.8-1.21,2.82-1.08,3.45A9.73,9.73,0,0,1,26,32a18.26,18.26,0,0,0-1,2.74l-.05,0c0,.27-.49,1.17-.49,1.39s-.27.36-.09.41c-.31.49-.85,2.37-1.39,2.91a.17.17,0,0,0,.05.13h-.09a14.57,14.57,0,0,0-1.08,2.38c-.09,0-.18,0-.18,0s.05.09.05.13a.5.5,0,0,1-.14.27l-.36.45s-.09.09-.09.13a.12.12,0,0,0,.05.09c-.05,0-.18.05-.18.09l0,0a.48.48,0,0,0-.4.44c-.05,0-.27.14-.27.18l.05,0a4.7,4.7,0,0,1-2.47,1.3c-.27,0-.22-.14-.4-.22a1.51,1.51,0,0,1-.86.17c-1.43,0-.85-.8-1.21-1,0,0,0,0,0-.09,0-.4,1.66-1,2.24-2a7.19,7.19,0,0,0,.54-1l.13,0a6.16,6.16,0,0,1,.5-1.17c.85-1.16,1.7-3.9,2.37-5.65,1.21-2.46.63-2.1,2.11-5.82.49-1.66,1.3-3.41,1.88-5.12-.09.05-.13.14-.22.23a11,11,0,0,0,.31-1.08c-.89,1.08-2.55,3.32-2.55,3.77-.05,0-.18,0-.18.09s0,0,0,.09-.18,0-.18.18a.14.14,0,0,1,.05.09c-.41.4-.85,1-1.35,1.48,0,0,.05,0,.05.09s-.32.27-.41.4c-.44.58-2.06,2.82-3,2.82a.77.77,0,0,1-.68-.22c-.09,0-.45.09-1.7-1.52,0-.18-.09,0-.09-.18a.14.14,0,0,1,0-.09c-.13,0-.35-.94-.35-1.21,0,0,.08-.05.08-.09s-.08,0-.08,0,.08,0,.08-.09-.08,0-.08,0,0-.23.08-.23a0,0,0,0,0,0,0h0a.08.08,0,0,1,.08-.09c0-.09-.08-.05-.08-.09s0-.23.08-.36a1.81,1.81,0,0,1,0-.22,7.28,7.28,0,0,0,.22-1.08h0c0-.63-.05-.13.36-1.48,1.57-3.5-.23-.13,2.06-4.75,0,0,0,.09.05.09s1.34-2.92,2.33-2.92h.31s1.7.18,1.7.86c0,.17.32.35.41.4s-.05.13-.05.18h.09a.28.28,0,0,1,.09.18c0,.45-.89.94-1.25,1.57a.19.19,0,0,0,0,.09c-.09,0-.13,0-.13,0a.24.24,0,0,1,0,.14c0,.09-.09.26-.4.53a1,1,0,0,0,0,.18c-.31,0-1.48,3.37-1.79,4,0,.32-.85,1.71-.85,2.78,1.88-1.66,1.43-2.1,5.56-6.27l-.09.09a4.36,4.36,0,0,1,.81-1.13,18.62,18.62,0,0,0,1.48-3H26c.59,0,.54.18,1.62.85,0,0,0,0,.09,0,.31,0,.9.72.94.8s.31-.17.4,2.38c0,0,0,0,0,0s.09.09.09.13-.09,0-.09.09Zm-10.4-1.93s0-.09,0-.09.23-.67.58-.67a.14.14,0,0,0,0-.09c0-.13.09-.09.18-.18s-.05,0-.05-.09.09,0,.18-.13a.19.19,0,0,1,0-.09,1,1,0,0,0,.54-.77c0-.08-.05-.22-.09-.22s-.45.45-.45.58a.09.09,0,0,0,.09.09c0,.05-.58.18-.58.68,0,0-1.66,3-1.89,3.67v0a6.93,6.93,0,0,0-1,3.36c.05,0,.05-.13.05-.22a27.81,27.81,0,0,1,1.7-4.26s.09-.09.09-.14S18.27,19.78,18.72,19.78Zm6.41.76s-.05,0-.05,0C24,22,22.08,24,21.94,24.18A27.56,27.56,0,0,1,19.57,27s.09,0,.09,0S18,28.21,18,28.88c.59,0,1.84-2.24,4.4-4.79a.12.12,0,0,0-.05.09A27.81,27.81,0,0,0,25,20.9,1,1,0,0,0,25.13,20.54Zm1.48.77a2.66,2.66,0,0,0-.09-.68c-.27,1.26-.81,2.87-1,3.86a15.45,15.45,0,0,1-.85,3.09c0,1-1,1.21-1,2.78a41.57,41.57,0,0,1-1.71,4.17c-.35.81-3.4,7.49-3.67,7.94a9.47,9.47,0,0,0,1.43-2.24v0c.09,0,.76-1.93,1.17-2.51,0,0-.05-.09-.05-.18,0,.94,3.59-8,4.4-10.67a1.49,1.49,0,0,0,0-.22.09.09,0,0,1,.09-.09A22.14,22.14,0,0,0,26.61,21.31Z" style="fill:#fff"/><path d="M46.07,21c-.59,1.48-2.56,3.77-2.43,4-1.48,1.79-.4,1.3-1.48,2.37,0,.77-.58.81-.58.81s.05,0,.05.09-.18,0-.18.27a.14.14,0,0,0,0,.09c-.8.81-.85,1.88-1.12,1.88,0,0,0,0-.09,0s0,.09,0,.09,0,0,0,0l0,0c0,1-.77,1.3-.77,1.57-.67.67-.67,1-.67,1.07a.14.14,0,0,0,.05-.09c0,.36-.77,1.35-.77,1.57C36.87,37,36.61,37.4,36.52,37.4v-.09c-.23,0-.72,1.8-2,1.8s-1.66-.45-1.66-.54l0,0c0-.36-.9.32-1.84-1.52-.18,0-.4-.76-.4-1.79,0-.14,0-.27.09-.27s-.09-.05-.09-.09a.09.09,0,0,1,.09-.09c-.05-.09-.05-.09-.05-.14a.53.53,0,0,1,.05-.22c0-.14-.05-.23-.05-.32s0-.22.14-.22-.14-.09-.14-.22a70,70,0,0,1,2.74-9,12.63,12.63,0,0,0,1.34-3c-1.34-.26-2.15.23-3.72-1.34-1.17-.58-1.26-1.17-1.26-1.75,0-.22.09-.54.09-.63l-.09,0c0-1.21.54-1.3.54-1.53a2.43,2.43,0,0,1,.94-1.7c0-.09,0-.09,0-.13s.58-.32.58-.86c.85-1.92,4.93.14,4.17.54a6.36,6.36,0,0,0-.58.85c-.09.09-.45.36-.45.72l0,0c0,.22-.09.18-.09.22a.14.14,0,0,0,0,.09c-.49,0-.58,1.88-.94,1.88-.27.18-.13.63-.49,1.39.09.09.31.09.58.09,1,0,1-.18,2-.18a7,7,0,0,1,2.46.72,1.4,1.4,0,0,1,.54,1.12,4.43,4.43,0,0,1-.4,1.71s-.23.53-.59,1.56a4.16,4.16,0,0,0-.71,1.8,14.43,14.43,0,0,1-.63,1.39,2.25,2.25,0,0,1-.22.54,37.12,37.12,0,0,0-2.16,7.75s0,0,0,0c0-.32.63-.63.63-1,1.65-3.05,1.07-1.21,1.92-3.23a3.92,3.92,0,0,0,1.12-1.71c.81-1.56,1-1.83,1-1.83v.09s0-.14.4-.54a.19.19,0,0,1,0-.09,3.5,3.5,0,0,1,.67-.9s0-.09,0-.13c0-.32.49-.59.49-.63h-.09a20,20,0,0,1,2.2-3.05s0-.09,0-.09c0-.18,1.62-2.24,2-2.24.13,0,0,.09.13.09a3.13,3.13,0,0,1,.4-.09A1.11,1.11,0,0,1,46.07,21ZM31.9,16.15s0,0,0,0h.09c2.15-3.64,0-1.22-.31-.27-.14,0-.18.44-.18.44V16.2s0,.08,0,.13-.13,0-.13,0a.14.14,0,0,0,0,.09c-.09,0-.35,1.57-.58,1.57v-.09c0,.09.05.18.05.32s-.09.18-.09.22,0,.09.09.09c.13-.45.27-.9.44-1.34C31.31,16.87,31.9,16.28,31.9,16.15ZM33.24,29c.59-1.12.45-1.66.81-2,0-.05,0-.09,0-.14,0-.4.68-1.34.59-1.25s-.05-.09-.05-.14a14.05,14.05,0,0,0,.72-1.61v-.14a4,4,0,0,0,.85-2s0,0-.18,0c-.49,0-.45,1.47-.76,1.47v0s0,.09,0,.13a1.55,1.55,0,0,0-.36.63c0,.05,0,.09,0,.14-1.75,1.75-2.51,7.8-3.14,9.37,0,.36-.09.27-.09.36s0,.09,0,.13a6.35,6.35,0,0,0-.09,1.61c0,.36,0,.63.09.63a27.32,27.32,0,0,1,.45-3.18C33.15,29.91,33.06,29,33.24,29ZM35.8,35l.18-.18c0-.05,0-.05,0-.09s.18-.09.18-.14c1.48-3,1.8-3.23,2-3.4,0,0,0-.09,0-.14s.13,0,.18-.09c.54-1.08.72-1.25.76-1.25s0,0,0,0c1.61-2.91,1.07-1.84,2.69-4.48,0-.23.09-.14.18-.23a.14.14,0,0,1-.05-.09c0-.09.23-.18.23-.22l-.05-.05c1.3-1.3.49-.8,1-1.34a.19.19,0,0,1,0-.09c0-.14.31-.31.31-.4l0-.05c-1.66,2.38-2,2.92-2,3l.22-.31a7.76,7.76,0,0,1-1.07,1.61,31.64,31.64,0,0,1-2.11,3.59c0,.09,0,0-.09.09-1.48,2.19-.85,2.78-1.61,2.78-1.26,1.25-.45,1.7-1,1.7,0,.31-.58.85-.58.94s0,.05.05.05c-.23,0-.45.67-.5.67v0s0,0,0,.09a.56.56,0,0,1-.14.09c0,.05,0,.05,0,.05s.22-.23.31-.36C35.48,35.21,35.44,36.06,35.8,35Zm8.07-13c-.09,0-.45.49-.49.49s0,.09,0,.14a.77.77,0,0,1-.13.09s0,0,0,0a6.11,6.11,0,0,0,.49-.67S43.87,22.07,43.87,22Zm.13-.36c0,.05,0,.09,0,.13a.56.56,0,0,1-.14.09c0,.05,0,.05.05.05.09-.18.31-.31.31-.45C44.18,21.49,44,21.58,44,21.62Z" style="fill:#fff"/><path d="M54.05,20.86a2,2,0,0,1-.77,1.25s0,0,0,0-.36.27-2.06,3.27a1.34,1.34,0,0,0-.23.54c0,.36-.22-.09-1,1.34-.13.14.23.32-.94,1.48,0,.05-.72.77-.72,1.21a.14.14,0,0,0,0,.09,4.91,4.91,0,0,0-.59.77s0,.09,0,.09S47,31.53,47,32c0,0,0,.09,0,.13-.27,0-.14.18-.27.32a.14.14,0,0,1-.09,0s.13.45-.9,1.12c-.18,0,.14.54-1,.54-.4,0-2.73-1-2.73-1.57,0,0,0-.09,0-.13v0c-.09,0-.27-.22-.27-.4a.14.14,0,0,1,.05-.09c-.23,0-.5-1.21-.5-2a1.54,1.54,0,0,1,0-.36s0-.09,0-.18a17.77,17.77,0,0,1,2-7.08v0s0,0,0,0c0-.23.81-1.53,1.44-2.78a1.42,1.42,0,0,0,.58-1c.45-.45-.18.13.94-1.53a.14.14,0,0,0-.05.09v0c0-.09.45-1.21,1.08-1.21.36,0,3.27.94,2.56,1.92S48.67,19.78,48.22,20c0,0-.63,1.39-.63,1.39-.13.8-.63,1-.85,1.61,0,.76-1.26,2.87-1.26,3.41,0,0,.05.09.05.09a1,1,0,0,0-.32.71c0,1.22-.71,2.43-.71,3.86.31-.09.71-1.08,1.48-1.84s-.32-.31,1.48-2.1c0,0-.05-.05-.05-.09a0,0,0,0,1,.05-.05c1.16-1.17-.14-.36,1.83-2.47l0,0A17.59,17.59,0,0,1,50.41,23S52,20.9,52,21V21c.09,0,.36-.76.81-.76.17,0,.26.08.35.08s.05,0,.09,0S54.05,20.45,54.05,20.86ZM43.24,25.25a45.45,45.45,0,0,1,2.2-5.11s0,.05,0,.05l.05-.05a.14.14,0,0,1-.05-.09l.05,0v0c-.05,0-.09,0-.09,0,0-.32,2-2.16,2-3.46a.5.5,0,0,0,0-.13,27.91,27.91,0,0,0-1.62,2.73,1.11,1.11,0,0,0-.54,1c-.13.22-.62,1.52-.8,1.52C44,23,43.82,23.1,43,25.34a15.66,15.66,0,0,0-.81,4.17.48.48,0,0,0,.09.36,9,9,0,0,1,.41-2.42c0-.18.09-1.7.63-2.11A.14.14,0,0,1,43.24,25.25ZM52,21.75a0,0,0,0,0,0,0c-1.21,1.66-2.47,3.32-3.63,5.07,0,0-.45.44-.45.67a.14.14,0,0,1,0-.09s-.36.72-.53.72c0,1-.54.53-1.35,2,0,0,0,.09,0,.13s-.27.09-.27.18,0,.09,0,.14-.27,0-.27.27-.94,1.12-.94,1.21,0,0,0,0c2.69-3,4.75-6.9,7.26-10.13C51.94,21.84,52,21.8,52,21.75ZM48.8,10.9a4.06,4.06,0,0,1,.63-2c0-.05.13-.05.13-.14a14.91,14.91,0,0,1,1.12-2.64c0-.05.41-.59.41-.63l0-.05s.63-.94,1.21-1,.72.09.85.18v0c.05,0,.18.09.27.09s0,0,.09,0c.05.31,2.65.63,2.16,1.48s-1.57,1.16-2.47,2.6c-.05,0-1.08,1.34-1.08,1.34-.89.85-1.43,2.6-1.21,2.65-.22,0-1.25-.41-1.3-1C49.16,11.53,48.89,11.35,48.8,10.9Zm3.14-4.39c0-.09.45-.18.4-1.08-.22,0-.27.05-.27.05s-1.83,3-1.88,3.72v.09C50.37,10.68,49.92,9.07,51.94,6.51Z" style="fill:#fff"/><path d="M66.6,22.65s-.9.76-.9,1.08c0,0,0,.09,0,.13a18.57,18.57,0,0,0-1.44,1.48v.14c-1,1.07-1.34,1.57-3.58,3.81h-.14A15.49,15.49,0,0,1,57.72,32a14.88,14.88,0,0,0-1.34.9c-.54,0,.22.4-1.84.4-1.26,0-2.38-1.25-4.08-3a3,3,0,0,1-.45-.67,3.45,3.45,0,0,1-.58-2.07.09.09,0,0,0,.09-.09c-.09,0-.09,0-.09-.09a1.21,1.21,0,0,1,.09-.4.09.09,0,0,1-.09-.09s.09,0,.09,0-.09-.05-.09-.09v0a2,2,0,0,0,.36-1.3s-.09,0-.09-.09.62-.85.62-1.52c.36-.94-.35.27,1.08-2.2a16.85,16.85,0,0,1,4.08-4.62l0,.05a1.63,1.63,0,0,1,1.43-.86s0-.08,0-.13v.05s.35-.54,2-.54a5.44,5.44,0,0,1,1.17.13h-.09a11,11,0,0,1,1.88,1,3.14,3.14,0,0,1,1.89,2.28s-.09.63-.59.63c-.27,0-.49-.4-.63-.67l.05,0a2.31,2.31,0,0,0-1.21-.44c-.23,0-.67.18-.81.18s-.09-.05-.09-.05-.18.14-.36.18,0,.13-.09.13-.09,0-.13,0,0-.05,0-.05-.94.54-.94.72-1.48.27-3.76,4.4a1.22,1.22,0,0,0-.45.85l0,0c-.27.27-.27.36-.4.81,0,0,0-.09,0-.09a8.27,8.27,0,0,0-1,3.72,4.44,4.44,0,0,0,.22,1.35c1,0,2.38-1.48,3-1.48a7.67,7.67,0,0,1,1.79-1.48,10.65,10.65,0,0,1,1.62-1.44,9.75,9.75,0,0,1,1.34-1.3c.05,0,.05.09.05.09a21.89,21.89,0,0,0,2.78-2.64,13.51,13.51,0,0,1,2.15-2.07s.05.05.09.05.36-.54.81-.54c.18,0,.85.58,1,.67C68.17,21.58,68.12,20.63,66.6,22.65Zm-10.9-4c1.35-1.08.23-.59,1.48-1.21,0,0,1-.59,1-.72-.23,0-.63.36-.86.36a3.51,3.51,0,0,1-.62.31v.09s-.09,0-.14,0a7.46,7.46,0,0,0-.72.62,9.22,9.22,0,0,0-2,2c-.86,1.25-3.1,4.17-3.1,6.54v.05c.32-1.12.59-1.66.59-1.8a3.31,3.31,0,0,1,.67-1.25c.13-.32.67-.72.67-1.3v0s.36-.76.58-.94A32.68,32.68,0,0,1,55.7,18.62Zm10.85,2.1a2.3,2.3,0,0,0-.31.32c-1.61,1.52-3,2.91-5.51,5.38-1.3,1.25-2.56,2.19-3.86,3.49,1.08-.71,2.78-2.06,9.37-8.65A3.32,3.32,0,0,0,66.55,20.72Z" style="fill:#fff"/><path d="M81.8,21.58l0,0c-.89.45-.4.76-1,1.35-.32,1-.18.17-.9,1.61a1.59,1.59,0,0,0-.76,1.21c0,.9-.27-.36-.94,1.66-.45.45-.54.63-.54.76s0,.18,0,.32v-.05c-.13,0-1,2.15-1.39,2.15,0,.36-1.48,2.42-2.37,2.42-.41,0-1-.67-1.57-1.25,0,0-1.12-1-1.12-1.3a.14.14,0,0,1,0-.09c.05,0,.05,0,.05,0s-.45,0-.45-.85l0,0s-.13-.54-.22-1a8.42,8.42,0,0,1,.22-2.42,5.43,5.43,0,0,0-1.61,1.66h-.05a0,0,0,0,1,.05,0c0,.13-.72.76-.9.94,0,0,0,.18,0,.18s0-.05-.09-.05v.09c-.09,0-.5,1.17-1.71,1.17-.85,0-1.21-.67-2.19-1.84,0,.05-.36-.36-.32-.36,0-.31-.62.54-.62-2,0-.54.31-.9.31-1.35,0,0,0,0,0,0,0-.36.63-.85.63-1.44,0,0,0-.26.14-.26s0,0,0-.09l0-.05s0,.05,0,.05.49-1,.67-1.17c0,0,0,0,0-.09a5.41,5.41,0,0,1,1-1.26c.72-.71,2.06-1.65,2.06-1.74a.19.19,0,0,0,.09,0c.09,0,0-.09.18-.09a0,0,0,0,1,0,0c.18,0,.13,0,.13-.09a.14.14,0,0,1,.09,0s.18-.18.18-.18a.14.14,0,0,1,.09.05A8.86,8.86,0,0,1,70.68,18a5.26,5.26,0,0,1,1.7.27v0c.05,0,.5.4.9.4a.19.19,0,0,0,.09,0c0,.09.13.18.18.18s.09-.05.09-.05.36.18.49.31.54-.76.94-.76a5.25,5.25,0,0,1,2,.94c.26.18.85.32.85.77S77,21.4,77,21.71a5.56,5.56,0,0,0-.86,1.75s.05.09.05.09-.23.22-.4.85v0c0,.13-1.17,3.09-1.17,3.09v.09l0,.45s0,0,0,0c-.18.54-.18,1.08-.36,1.57a0,0,0,0,0,.05,0s.27-.27.31-.32a.19.19,0,0,0,0-.09s.17-.13.22-.18a.14.14,0,0,1,0-.09s.36-.27.32-.27-.09,0-.09-.08.13-.32.72-.9c0,0,0-.05,0-.09l0-.05h0c0-.09.72-.4.72-.94,0-.22.13-.18.22-.27l0,0c0-.54,0-.41,1.12-1.48,0,0-.05-.05-.05-.09l.05-.05s0,.05,0,.05c.32-.81.68-.4,2.87-3.5.14,0,.18-.63,1-.63a.73.73,0,0,1,.45.36,5.4,5.4,0,0,0-.09.63S81.8,21.53,81.8,21.58ZM69.56,19c-.5,0-.76.27-1.62.9-.22.22-.31.27-.35.27s0-.05-.09-.05-.27.22-1.53,2.15c0,0-.09,0-.09.05l.05,0a2.52,2.52,0,0,0-.32.41s0,.09,0,.09a0,0,0,0,1,0-.05l0,.05a.19.19,0,0,0,0,.09h-.09c0,.26-.09.09-.09.17s0,.05,0,.09,0,0,0,0,0,.18-.13.22a.19.19,0,0,1,0,.09s-.09.09-.09.14c0,.31-.76.58-.76,2.15a3.81,3.81,0,0,0,.72-1.66v.05s0,0,0-.05c0-.4,1.75-2.46,1.75-2.64V21.4C67.85,20.45,68.75,19.83,69.56,19Zm2.64,3.45s0,0,0-.09a24.6,24.6,0,0,1-3,3.14s-2,1.62-2,1.93a0,0,0,0,0,0,0c.45-.35.9-.85,1.3-1.12,1.21-1.21-.22.27,2.42-2.37a.19.19,0,0,1,0-.09c0-.36,1.25-.9,1.25-1.3C72.11,22.56,72.2,22.52,72.2,22.47Zm.94-1.84c-1.39,0-1.34.63-2,.63.09,0-1.39,1.12-1.53,1.35h.09s-.49.22-.49.49a.14.14,0,0,1,0,.09,3.2,3.2,0,0,0-1,1.66,2,2,0,0,0-.72,1.34,0,0,0,0,0,0,0,8.28,8.28,0,0,0,1.65-1.35.14.14,0,0,1,0-.09,7,7,0,0,1,.63-.53.14.14,0,0,0,0-.09,0,0,0,0,1,0-.05c.71-.9,1.88-1.79,2.64-2.73A3.23,3.23,0,0,0,73.14,20.63Zm-.49,3.64c0-.05,0-.05,0-.09a2.08,2.08,0,0,0-.41,1,0,0,0,0,0,0,.05c.09-.32.31-.54.31-.72S72.65,24.36,72.65,24.27Zm8.48-3.14c-.09,0-.32.22-.41.31-1.16.81-.54.58-1.57,1.75,0,0,0,0,0,.13s-.18.59-1,1.44c0,.13-.41.49-.41.58l0,.05,0,0a0,0,0,0,1,0,0,5.08,5.08,0,0,0-.72,1,.14.14,0,0,1,0,.09c-.14,0-.5.13-.9,1.39-.09.09-.18.13-.18.18a.14.14,0,0,1,0,.09c0-.05,0-.05,0-.05a5.5,5.5,0,0,1-.49.72c0,.45-1.35,1.7-1.35,2,0,.05,0,.14.05.14s.44,0,1.43-1.84h0s.31-.81.58-.81c0,0-.05-.09-.05-.09s1-1.52,2.51-3.81C79,24,79.87,23,79.87,22.56c0,.05.49-.58,1.3-1.39C81.17,21.13,81.17,21.13,81.13,21.13Z" style="fill:#fff"/><path d="M90.18,9s0,.09,0,.09a20.45,20.45,0,0,0-1.35,2.55c0,.05-.85,1.88-.85,1.93-.9.9-.9,2.06-1.17,2.33A4.89,4.89,0,0,0,86,17.81c-.45,1.3-1.16,2.55-1.16,2.82s-1.93,5.52-1.93,5.88A5.89,5.89,0,0,1,82.25,29a7.46,7.46,0,0,1-.54,2.33l0,.05s0,.54-.09.76a11.31,11.31,0,0,0,1.21-2h0c1.25-2.24,4.3-6.37,4.3-7a18.35,18.35,0,0,1,1.12-2s0,.22,0,.22.36-1.84,2.11-1.84c.4,0,1.16.23,1.16.68s-.18.17-1.21,1.74c-.85.86-.85,1.35-.85,1.39s-1.08,1.35-1.08,1.84l0,0c-.32.31-.4.49-.4.58a.14.14,0,0,0,0,.09,2.39,2.39,0,0,0-1,1.48s0,.09,0,.09a5.46,5.46,0,0,0-.58.9s0,.09,0,.13a1.24,1.24,0,0,0-.45.58c0,.05.05.05.05.09-.27.14-.63,1.08-.63,1,0,.14-.18.09-.18.18s0,.09,0,.14c-.17,0,0,.13-.13.13h0s-.41.81-.41.76a.14.14,0,0,0,0,.09c-.14,0-.14,0-.14.05s.05.09.05.09A19.32,19.32,0,0,0,83,34.76s0,.09,0,.13c-.18,0-.27.32-.27.36a.14.14,0,0,0,0,.09c-.18,0-.36.76-.4.76v0a1.45,1.45,0,0,1-.77,1.39s0,0,0,.18a0,0,0,0,1,0-.05l0,.05s0,.09,0,.13c-.36.23-.36.4-1,.4,0-.26-.63-.31-.63-.31h.14c-.27,0-.32-.09-.32-.13v0s0,0-.08,0c-.23,0-.27-.41-.36-.41s-.09,0-.14,0-1.07-.81-1.07-1.62c0,0,.09,0,.09-.09-.18-.13-.05-.31-.27-.62,0-.05.09-.05.09-.14,0-.45-.14-1.07-.14-1.7,0-.85.14-1.75.14-2.51,0,0-.09,0-.09-.05s.18-.63.18-.63a.09.09,0,0,1-.09-.09,1.85,1.85,0,0,1,.18-.67s-.05-.13-.05-.18l.18-.62v-.05a4.08,4.08,0,0,1,.13-.81l0-.44A19.9,19.9,0,0,0,79,24.67c.13-.76.89-1.88.89-3,0-.18.72-1.39.72-1.53a.31.31,0,0,0,0-.18l0,.05a8.36,8.36,0,0,0,.94-2.47v.05c0-.45,1.3-2.83,1.3-3.19,1.53-2.78,2.65-5.92,3.1-5.92h0a.19.19,0,0,0,0-.09c0-.13.18-.18.18-.18,2.15-3.81,2-3.45,2.46-4.21s.68-1.66,1.44-1.66c.45,0,3.45,1.21,3.45,2.2a.37.37,0,0,1-.09.31A27.3,27.3,0,0,0,90.94,8C90.81,8,90.18,8.71,90.18,9ZM81,22.79l-.4.53a11.82,11.82,0,0,0-.72,2.38,3.15,3.15,0,0,1-.27,1.08c0,.13.05.18.05.27a10.36,10.36,0,0,1-.32,1.39,22.52,22.52,0,0,0-.49,4.34s0,0,0,0,.23-2.11.23-2.2c0-1.25.89-3.05.89-4.21Zm.36,11.34s0,0,0,0c1.17-2.37,2.56-4.66,3.9-7,0,0,0,.05-.08.05v-.05a2.62,2.62,0,0,0-.81,1.22.14.14,0,0,1,0,.09c-.71.71-.85,1-.85,1.12s.09.13.09.22-.09.27-.49.67c-.85.85-.54,1.3-.76,1.3C81.48,33.5,81.35,33.64,81.35,34.13Zm3.81-21.75a.41.41,0,0,0-.4.23c0,1.12-1.53,2.64-1.57,3.41l-1.26,3.4a4.75,4.75,0,0,1,.59-.76,10.41,10.41,0,0,0,1-2.55c.72-.72.58-1.66.94-2C84.58,13.86,85.07,12.61,85.16,12.38Zm.45,14.35c.18-.27.31-.54.45-.76A2.94,2.94,0,0,0,85.61,26.73ZM89.29,5a.26.26,0,0,0-.05-.18c-.58.94-2.2,3.68-2.2,3.54,0,0,0,.09,0,.14a10.4,10.4,0,0,0-1.21,2.11s0,0,0,0,.14-.09.23-.09.27-.72.45-.72V9.74a4.29,4.29,0,0,0,1.12-1.88c0-.54,1.21-1.93,1.21-2C89.11,5.48,89.29,5.39,89.29,5ZM86.51,25.25c.22,0,.35-.63.58-.76,0,0,0,0,0-.09a1.54,1.54,0,0,1,.32-.85C86.24,24.8,86.73,24.8,86.51,25.25Z" style="fill:#fff"/><path d="M88.12,32.38a2.56,2.56,0,0,1,.58-1.93c.18-.36.32-.76.72-.76.09,0,3,1.44,3,3.09a3.4,3.4,0,0,1-.5,1.39c-.76,1.17-.94,1.39-1.65,1.39-1.17,0-1.62-1.83-1.71-2s-.18-.13-.18-.22a.14.14,0,0,1,0-.09c-.18-.18-.23-.27-.23-.81C88.21,32.47,88.12,32.47,88.12,32.38Z" style="fill:#fff"/></svg>